<svg width="21" height="21" viewBox="0 0 21 21" fill="none" xmlns="http://www.w3.org/2000/svg">
<path d="M17.6452 9.00468C17.3872 8.88994 14.9722 7.8149 14.7135 7.70016C13.499 7.15956 12.0767 7.70632 11.5369 8.91997L18.865 12.1813C19.4056 10.9669 18.8588 9.54451 17.6452 9.00468ZM19.4164 1.07743C19.0113 0.897227 18.5808 0.943432 18.4491 1.19063L14.9406 7.8011L17.3078 8.85381L19.9801 1.87138C20.0756 1.60802 19.8214 1.25763 19.4164 1.07743Z" stroke="black" stroke-width="1.4" stroke-linecap="round" stroke-linejoin="round"/>
<path d="M17.677 13.2178C16.173 17.7967 14.2263 20.167 14.2263 20.167C14.2263 20.167 7.52112 19.9237 3.17168 14.5546C4.0696 14.6186 9.66735 14.1373 11.5956 10.4185" stroke="black" stroke-width="1.4" stroke-linecap="round" stroke-linejoin="round"/>
<path d="M5.77074 17.0255C5.77074 17.0255 7.89462 16.7455 9.03435 15.555C8.12257 17.2268 7.03676 17.8611 7.03676 17.8611L5.77074 17.0255ZM8.76481 18.6996C8.76481 18.6996 10.4351 18.7185 13.2768 16.1009C12.2548 18.4312 10.9223 19.5623 10.9223 19.5623L8.76481 18.6996Z" stroke="black" stroke-width="1.4" stroke-linecap="round" stroke-linejoin="round"/>
<path d="M1.20337 8.04436C1.27136 8.0162 1.34423 8.00171 1.41782 8.00171C1.49142 8.00171 1.56429 8.0162 1.63228 8.04436C1.70027 8.07253 1.76205 8.1138 1.81409 8.16584C1.86612 8.21788 1.9074 8.27966 1.93557 8.34765C1.96373 8.41564 1.97822 8.48851 1.97822 8.56211C1.97822 8.6357 1.96373 8.70857 1.93557 8.77656C1.9074 8.84455 1.86612 8.90633 1.81409 8.95837C1.76205 9.01041 1.70027 9.05169 1.63228 9.07985C1.56429 9.10801 1.49142 9.12251 1.41782 9.12251C1.34423 9.12251 1.27136 9.10801 1.20337 9.07985C1.13538 9.05169 1.0736 9.01041 1.02156 8.95837C0.969521 8.90633 0.928243 8.84455 0.90008 8.77656C0.871917 8.70857 0.857422 8.6357 0.857422 8.56211C0.857422 8.48851 0.871917 8.41564 0.90008 8.34765C0.928243 8.27966 0.969521 8.21788 1.02156 8.16584C1.0736 8.1138 1.13538 8.07253 1.20337 8.04436Z" fill="black"/>
<path d="M2.83485 8.48473C2.90491 8.41467 2.99994 8.37531 3.09903 8.37531C3.19811 8.37531 3.29314 8.41467 3.3632 8.48473C3.43327 8.55479 3.47263 8.64982 3.47263 8.74891C3.47263 8.84799 3.43327 8.94302 3.3632 9.01308C3.29314 9.08315 3.19811 9.12251 3.09903 9.12251C2.99994 9.12251 2.90491 9.08315 2.83485 9.01308C2.76479 8.94302 2.72543 8.84799 2.72543 8.74891C2.72543 8.64982 2.76479 8.55479 2.83485 8.48473Z" fill="black"/>
<path d="M2.25179 10.1433C2.42695 9.96811 2.66451 9.86971 2.91223 9.86971C3.15994 9.86971 3.39751 9.96811 3.57266 10.1433C3.74782 10.3184 3.84623 10.556 3.84623 10.8037C3.84623 11.0514 3.74782 11.289 3.57266 11.4641C3.39751 11.6393 3.15994 11.7377 2.91223 11.7377C2.66451 11.7377 2.42695 11.6393 2.25179 11.4641C2.07663 11.289 1.97822 11.0514 1.97822 10.8037C1.97822 10.556 2.07663 10.3184 2.25179 10.1433Z" fill="black"/>
</svg>
