<svg width="45" height="17" viewBox="0 0 45 17" fill="none" xmlns="http://www.w3.org/2000/svg">
<path d="M1 8.27273C1 8.27273 4.63636 1 11 1C17.3636 1 21 8.27273 21 8.27273C21 8.27273 17.3636 15.5455 11 15.5455C4.63636 15.5455 1 8.27273 1 8.27273Z" stroke="black" stroke-width="2" stroke-linecap="round" stroke-linejoin="round"/>
<path d="M11 11C12.5062 11 13.7273 9.77896 13.7273 8.27273C13.7273 6.7665 12.5062 5.54545 11 5.54545C9.49377 5.54545 8.27273 6.7665 8.27273 8.27273C8.27273 9.77896 9.49377 11 11 11Z" stroke="black" stroke-width="2" stroke-linecap="round" stroke-linejoin="round"/>
<path d="M43.2685 2.26849C43.6265 1.91051 44.2069 1.91051 44.5649 2.26849C44.9228 2.62647 44.9228 3.20687 44.5649 3.56485L39.0649 9.06485C38.7178 9.41188 38.159 9.42402 37.7973 9.09239L32.2973 4.05072C31.9241 3.70863 31.8989 3.12878 32.2409 2.75559C32.583 2.38239 33.1629 2.35718 33.5361 2.69928L38.3891 7.14787L43.2685 2.26849Z" fill="black"/>
</svg>
