<svg width="21" height="21" viewBox="0 0 21 21" fill="none" xmlns="http://www.w3.org/2000/svg">
<path d="M1.34594 8.07616C1.41394 8.048 1.48681 8.0335 1.5604 8.0335C1.63399 8.0335 1.70687 8.048 1.77486 8.07616C1.84285 8.10433 1.90463 8.1456 1.95666 8.19764C2.0087 8.24968 2.04998 8.31146 2.07814 8.37945C2.10631 8.44744 2.1208 8.52031 2.1208 8.59391C2.1208 8.6675 2.10631 8.74037 2.07814 8.80836C2.04998 8.87635 2.0087 8.93813 1.95666 8.99017C1.90463 9.04221 1.84285 9.08349 1.77486 9.11165C1.70687 9.13981 1.63399 9.15431 1.5604 9.15431C1.48681 9.15431 1.41394 9.13981 1.34594 9.11165C1.27795 9.08349 1.21618 9.04221 1.16414 8.99017C1.1121 8.93813 1.07082 8.87635 1.04266 8.80836C1.0145 8.74037 1 8.6675 1 8.59391C1 8.52031 1.0145 8.44744 1.04266 8.37945C1.07082 8.31146 1.1121 8.24968 1.16414 8.19764C1.21618 8.1456 1.27795 8.10433 1.34594 8.07616Z" fill="black"/>
<path d="M2.97743 8.51653C3.04749 8.44647 3.14252 8.4071 3.2416 8.4071C3.34069 8.4071 3.43572 8.44647 3.50578 8.51653C3.57584 8.58659 3.6152 8.68162 3.6152 8.78071C3.6152 8.87979 3.57584 8.97482 3.50578 9.04488C3.43572 9.11494 3.34069 9.15431 3.2416 9.15431C3.14252 9.15431 3.04749 9.11494 2.97743 9.04488C2.90736 8.97482 2.868 8.87979 2.868 8.78071C2.868 8.68162 2.90736 8.58659 2.97743 8.51653Z" fill="black"/>
<path d="M2.39436 10.1751C2.56952 9.99991 2.80709 9.90151 3.0548 9.90151C3.30252 9.90151 3.54008 9.99991 3.71524 10.1751C3.8904 10.3502 3.98881 10.5878 3.98881 10.8355C3.98881 11.0832 3.8904 11.3208 3.71524 11.4959C3.54008 11.6711 3.30252 11.7695 3.0548 11.7695C2.80709 11.7695 2.56952 11.6711 2.39436 11.4959C2.21921 11.3208 2.1208 11.0832 2.1208 10.8355C2.1208 10.5878 2.21921 10.3502 2.39436 10.1751Z" fill="black"/>
<path d="M17.8196 13.2496C16.3156 17.8285 14.3688 20.1988 14.3688 20.1988C14.3688 20.1988 7.6637 19.9555 3.31426 14.5864C4.21218 14.6504 9.80992 14.1691 11.7382 10.4503M17.7878 9.03648C17.5298 8.92174 15.1148 7.8467 14.856 7.73196C13.6416 7.19136 12.2193 7.73812 11.6794 8.95177L19.0076 12.2131C19.5482 10.9987 19.0014 9.57631 17.7878 9.03648ZM19.559 1.10923C19.1539 0.929026 18.7234 0.975231 18.5917 1.22243L15.0832 7.8329L17.4504 8.88561L20.1227 1.90318C20.2181 1.63981 19.964 1.28943 19.559 1.10923ZM5.91332 17.0573C5.91332 17.0573 8.0372 16.7773 9.17693 15.5868C8.26515 17.2586 7.17934 17.8929 7.17934 17.8929L5.91332 17.0573ZM8.90739 18.7314C8.90739 18.7314 10.5777 18.7503 13.4193 16.1327C12.3974 18.463 11.0648 19.5941 11.0648 19.5941L8.90739 18.7314ZM1.5604 8.0335C1.48681 8.0335 1.41394 8.048 1.34594 8.07616C1.27795 8.10433 1.21618 8.1456 1.16414 8.19764C1.1121 8.24968 1.07082 8.31146 1.04266 8.37945C1.0145 8.44744 1 8.52031 1 8.59391C1 8.6675 1.0145 8.74037 1.04266 8.80836C1.07082 8.87635 1.1121 8.93813 1.16414 8.99017C1.21618 9.04221 1.27795 9.08349 1.34594 9.11165C1.41394 9.13981 1.48681 9.15431 1.5604 9.15431C1.63399 9.15431 1.70687 9.13981 1.77486 9.11165C1.84285 9.08349 1.90463 9.04221 1.95666 8.99017C2.0087 8.93813 2.04998 8.87635 2.07814 8.80836C2.10631 8.74037 2.1208 8.6675 2.1208 8.59391C2.1208 8.52031 2.10631 8.44744 2.07814 8.37945C2.04998 8.31146 2.0087 8.24968 1.95666 8.19764C1.90463 8.1456 1.84285 8.10433 1.77486 8.07616C1.70687 8.048 1.63399 8.0335 1.5604 8.0335ZM3.2416 8.4071C3.14252 8.4071 3.04749 8.44647 2.97743 8.51653C2.90736 8.58659 2.868 8.68162 2.868 8.78071C2.868 8.87979 2.90736 8.97482 2.97743 9.04488C3.04749 9.11494 3.14252 9.15431 3.2416 9.15431C3.34069 9.15431 3.43572 9.11494 3.50578 9.04488C3.57584 8.97482 3.6152 8.87979 3.6152 8.78071C3.6152 8.68162 3.57584 8.58659 3.50578 8.51653C3.43572 8.44647 3.34069 8.4071 3.2416 8.4071ZM3.0548 9.90151C2.80709 9.90151 2.56952 9.99991 2.39436 10.1751C2.21921 10.3502 2.1208 10.5878 2.1208 10.8355C2.1208 11.0832 2.21921 11.3208 2.39436 11.4959C2.56952 11.6711 2.80709 11.7695 3.0548 11.7695C3.30252 11.7695 3.54008 11.6711 3.71524 11.4959C3.8904 11.3208 3.98881 11.0832 3.98881 10.8355C3.98881 10.5878 3.8904 10.3502 3.71524 10.1751C3.54008 9.99991 3.30252 9.90151 3.0548 9.90151Z" stroke="black" stroke-linecap="round" stroke-linejoin="round"/>
</svg>
