<svg width="24" height="16" viewBox="0 0 24 16" fill="none" xmlns="http://www.w3.org/2000/svg">
<path d="M23.855 7.39167C21.5954 2.98292 17.1221 0 12 0C6.87793 0 2.40335 2.985 0.145015 7.39208C0.0496995 7.58063 3.8147e-05 7.78894 3.8147e-05 8.00021C3.8147e-05 8.21148 0.0496995 8.41979 0.145015 8.60833C2.4046 13.0171 6.87793 16 12 16C17.1221 16 21.5967 13.015 23.855 8.60792C23.9503 8.41937 24 8.21106 24 7.99979C24 7.78852 23.9503 7.58021 23.855 7.39167ZM12.0058 14H12C10.4097 13.9992 8.88489 13.3669 7.76081 12.2419C6.63672 11.117 6.00546 9.59173 6.00585 8.00146C6.00624 6.41119 6.63824 4.88618 7.76287 3.76182C8.8875 2.63747 10.4127 2.00583 12.0029 2.00583C13.5932 2.00583 15.1184 2.63747 16.243 3.76182C17.3676 4.88618 17.9996 6.41119 18 8.00146C18.0004 9.59173 17.3691 11.117 16.2451 12.2419C15.121 13.3669 13.5961 13.9992 12.0058 14Z" fill="black"/>
<path d="M15.8608 9.03626C15.7247 9.54332 15.4899 10.0185 15.1698 10.4347C14.8497 10.8509 14.4506 11.1998 13.9955 11.4614C13.5403 11.7231 13.038 11.8924 12.5173 11.9596C11.9966 12.0268 11.4677 11.9906 10.961 11.853C10.4544 11.7155 9.97978 11.4794 9.56452 11.1581C9.14926 10.8368 8.80147 10.4368 8.54107 9.98092C8.28067 9.52503 8.11279 9.02223 8.04704 8.50135C7.98129 7.98046 8.01897 7.45172 8.15791 6.94542C8.54194 7.22801 9.01453 7.36362 9.48997 7.32766C9.96541 7.29169 10.4122 7.08653 10.7494 6.74938C11.0865 6.41223 11.2917 5.96542 11.3276 5.48998C11.3636 5.01454 11.228 4.54195 10.9454 4.15792C11.6237 3.96431 12.3412 3.95486 13.0243 4.13054C13.7074 4.30621 14.3314 4.66067 14.8321 5.15747C15.3328 5.65426 15.6922 6.27546 15.8732 6.95717C16.0542 7.63889 16.0504 8.35652 15.8621 9.03626H15.8608Z" fill="black"/>
</svg>
